<?xml version="1.0" encoding="UTF-8"?>
<svg xmlns="http://www.w3.org/2000/svg" xmlns:xlink="http://www.w3.org/1999/xlink" width="25px" height="25px" viewBox="0 0 25 25" version="1.1">
<g id="surface1">
<path style=" stroke:none;fill-rule:nonzero;fill:rgb(0%,0%,0%);fill-opacity:1;" d="M 25 12.5 C 25 19.402344 19.402344 25 12.5 25 C 5.597656 25 0 19.402344 0 12.5 C 0 5.597656 5.597656 0 12.5 0 C 19.402344 0 25 5.597656 25 12.5 M 10.609375 7.957031 C 10.371094 7.789062 10.058594 7.765625 9.796875 7.898438 C 9.539062 8.035156 9.375 8.300781 9.375 8.59375 L 9.375 16.40625 C 9.375 16.699219 9.539062 16.964844 9.796875 17.101562 C 10.058594 17.234375 10.371094 17.210938 10.609375 17.042969 L 14.84375 14.019531 L 14.84375 16.40625 C 14.84375 16.835938 15.195312 17.1875 15.625 17.1875 C 16.054688 17.1875 16.40625 16.835938 16.40625 16.40625 L 16.40625 8.59375 C 16.40625 8.164062 16.054688 7.8125 15.625 7.8125 C 15.195312 7.8125 14.84375 8.164062 14.84375 8.59375 L 14.84375 10.980469 Z M 10.609375 7.957031 "/>
</g>
</svg>
